<svg id="レイヤー_1" data-name="レイヤー 1" xmlns="http://www.w3.org/2000/svg" viewBox="0 0 517.67 412.48"><defs><style>.cls-1{fill:none;stroke:#fff;stroke-miterlimit:10;stroke-width:5.67px;}</style></defs><title>カメラアイコン</title><path class="cls-1" d="M397.93,252.08c-40.91,0-74.07,33.44-74.07,74.72s33.15,74.72,74.07,74.72S472,368.09,472,326.79,438.84,252.08,397.93,252.08Z" transform="translate(-139.09 -91.4)"/><path class="cls-1" d="M639.3,181.94a49.91,49.91,0,0,0-35.45-14.81h-54.2a11.3,11.3,0,0,1-10.31-6.81L523.1,124a50.07,50.07,0,0,0-45.7-29.73H318.46A50.12,50.12,0,0,0,272.74,124v0l-16.22,36.34a11.3,11.3,0,0,1-10.31,6.81H192a50.2,50.2,0,0,0-50.08,50.34V450.72a50.46,50.46,0,0,0,14.59,35.53A49.93,49.93,0,0,0,192,501H603.85a49.83,49.83,0,0,0,35.45-14.8,50.36,50.36,0,0,0,14.63-35.53V217.47A50.33,50.33,0,0,0,639.3,181.94Z" transform="translate(-139.09 -91.4)"/><path class="cls-1" d="M397.93,211.74a113.42,113.42,0,0,0-80.79,33.75,115.68,115.68,0,0,0,0,162.63,113.55,113.55,0,0,0,161.59,0,115.68,115.68,0,0,0,0-162.63A113.45,113.45,0,0,0,397.93,211.74Z" transform="translate(-139.09 -91.4)"/><rect class="cls-1" x="395.02" y="147.9" width="34.41" height="34.41"/></svg>